<svg width="16" height="16" viewBox="0 0 16 16" fill="none" xmlns="http://www.w3.org/2000/svg">
<mask id="mask0_1_117" style="mask-type:alpha" maskUnits="userSpaceOnUse" x="0" y="0" width="16" height="16">
<rect width="16" height="16" fill="#D9D9D9"/>
</mask>
<g mask="url(#mask0_1_117)">
<path d="M4.66634 9.3334V13.3334C4.66634 13.5223 4.60245 13.6806 4.47467 13.8084C4.3469 13.9362 4.18856 14.0001 3.99967 14.0001C3.81079 14.0001 3.65245 13.9362 3.52467 13.8084C3.3969 13.6806 3.33301 13.5223 3.33301 13.3334V3.3334C3.33301 3.14451 3.3969 2.98618 3.52467 2.8584C3.65245 2.73062 3.81079 2.66673 3.99967 2.66673H8.78301C8.93856 2.66673 9.07745 2.71673 9.19967 2.81673C9.3219 2.91673 9.39967 3.04451 9.43301 3.20007L9.59968 4.00007H12.6663C12.8552 4.00007 13.0136 4.06396 13.1413 4.19173C13.2691 4.31951 13.333 4.47784 13.333 4.66673V10.0001C13.333 10.189 13.2691 10.3473 13.1413 10.4751C13.0136 10.6028 12.8552 10.6667 12.6663 10.6667H9.21634C9.06079 10.6667 8.9219 10.6167 8.79967 10.5167C8.67745 10.4167 8.59967 10.289 8.56634 10.1334L8.39967 9.3334H4.66634ZM9.76634 9.3334H11.9997V5.3334H9.04967C8.89412 5.3334 8.75523 5.2834 8.63301 5.1834C8.51079 5.0834 8.43301 4.95562 8.39967 4.80007L8.23301 4.00007H4.66634V8.00007H8.94967C9.10523 8.00007 9.24412 8.05007 9.36634 8.15007C9.48856 8.25007 9.56634 8.37784 9.59968 8.5334L9.76634 9.3334Z" fill="#0560FD"/>
</g>
</svg>
